<svg width="33" height="64" viewBox="0 0 33 64" fill="none" xmlns="http://www.w3.org/2000/svg">
<path fill-rule="evenodd" clip-rule="evenodd" d="M32.001 1.184C32.0654 0.608 32.001 0.672 31.7756 0.16C31.7112 0.064 31.6147 0 31.4859 0C31.1318 0 30.5523 0.448 30.2304 0.8C28.0412 3.232 25.3692 7.328 23.9527 7.808C23.2444 8.064 22.5684 6.816 22.0855 6.368C20.1539 4.48 17.675 2.368 13.6509 1.12C11.5261 0.416 9.72331 -0.192 9.04726 0.128C7.79172 0.704 9.59454 1.856 10.3028 2.624C10.8501 3.2 11.4617 3.136 12.1056 2.848C12.5885 2.656 13.168 2.656 13.6509 2.848C17.2887 4.32 19.3491 5.728 21.4416 7.968C22.1177 8.736 22.5362 9.696 21.8923 10.304C19.7354 12.384 17.4819 14.592 15.3571 16.704C14.8742 17.184 14.2947 17.824 13.6831 17.792C13.2968 17.76 12.6851 17.344 12.331 17.12C11.7193 16.704 11.172 16.48 10.5925 16.032C10.0774 15.648 9.98086 15.296 9.94866 14.656C9.91647 13.6 10.174 12.704 10.335 11.904C10.5925 10.464 10.9145 9.024 11.2042 7.552C11.4295 6.432 11.5583 4.992 11.4617 3.808C11.3652 3.52 10.8823 3.456 10.5603 3.68C10.4316 4.288 10.4316 4.288 10.3028 4.928C10.174 5.6 10.0452 6.816 9.91647 7.488C9.53015 9.6 9.01506 11.2 8.66094 13.952C8.59655 14.368 8.49997 15.072 8.43559 15.584C8.3712 16.288 8.59655 17.152 8.3712 17.6C8.08146 18.24 7.82392 18.752 7.98488 19.616C8.11366 20.448 7.9205 20.672 7.40541 21.088C6.66496 21.696 5.02311 22.912 4.08951 23.456C3.57442 23.776 2.93056 24.384 3.31688 25.024C3.671 25.664 4.47583 25.792 5.18408 25.824C6.27865 25.888 7.66295 24.48 8.72533 24.256C9.14384 24.16 9.72331 24 10.0774 24.288C10.5281 24.608 10.6247 25.12 10.7213 25.632C11.1398 27.552 11.011 28.544 10.8823 30.592C10.7857 31.808 10.4959 34.016 10.0774 35.168C9.75551 36.064 9.43357 36.448 8.69313 37.088C8.01708 37.664 7.21225 38.464 6.9869 39.872C6.89032 40.544 7.34102 42.144 6.63277 43.968C5.95671 45.696 5.86013 46.08 5.15189 47.712C4.79776 48.544 4.44364 49.568 4.05732 50.592C3.38126 52.384 3.28468 52.256 2.7374 54.08C2.44766 55.072 1.99696 56.512 1.70722 57.504C1.19213 59.136 1.38529 59.04 0.580458 60.704C0.355106 61.12 -0.256564 62.432 0.19414 63.264C0.387299 63.616 0.902389 64 1.28871 64C1.3209 64 1.35309 64 1.38529 64C2.19012 63.808 2.80179 63.52 3.1881 62.72C3.54223 61.984 3.34907 60.928 3.60661 60.16C4.18609 58.4 4.76557 56.608 5.5382 54.912C6.37523 53.088 6.27865 52.384 7.01909 50.464C7.82392 48.288 8.3712 46.944 9.53015 44.96C10.9145 42.624 14.5201 39.456 16.0654 38.336C18.4799 36.64 19.9929 35.52 19.671 37.472C19.4135 39.136 16.5805 43.296 15.9688 44.672C15.6469 45.344 15.6147 46.048 15.9044 46.624C16.2585 47.36 17.0634 48.352 17.8682 48.288C18.6086 48.256 19.2525 47.264 19.0271 46.56C18.7374 45.696 18.7052 45.056 19.7676 43.008C21.0875 40.48 23.1801 36.864 22.7937 33.696C22.665 32.544 21.2807 31.968 20.1539 32.352C18.8662 32.8 16.7414 34.496 15.4215 35.2C14.5201 35.68 13.8762 35.872 13.7796 34.912C13.6831 34.016 13.8762 32.96 13.9406 32.032C14.2304 28.736 14.0372 27.552 14.3591 24.64C14.4557 23.808 15.2927 22.688 16.001 23.328C18.2545 25.312 21.1519 27.616 23.4054 29.408C24.339 30.144 24.7575 30.784 25.2082 32.096C25.4336 32.736 25.2404 33.696 25.0151 34.592C24.9185 35.008 25.1116 35.616 26.013 35.008C28.1056 32.192 29.5221 27.616 29.5221 24.064C29.5543 20.928 29.9084 17.536 26.5281 12.032C25.9809 11.136 24.6931 9.152 25.9487 7.84C27.7193 5.92 31.2283 2.688 32.001 1.184ZM27.7515 20.48C27.8481 21.696 27.8802 22.624 27.8802 23.84C27.8802 24.64 27.5905 25.632 27.4295 26.72C27.333 27.456 27.2686 28.512 26.9145 29.568C26.8501 29.728 26.6569 30.208 26.3028 30.208C25.9165 30.24 25.7877 29.728 25.5945 29.504C24.9185 28.736 24.3712 28 23.6308 27.392C22.9225 26.848 21.7314 26.016 20.9587 25.536C20.2505 25.056 19.51 24.256 18.8018 23.744C18.0613 23.2 17.3853 22.688 16.7092 22.048C16.5161 21.888 16.2907 21.6 16.1941 21.408C16.0332 21.024 16.0332 20.544 16.1619 20.192C16.3229 19.648 16.677 19.168 16.999 18.688C17.4175 18.08 17.8682 17.504 18.3511 16.96C18.6408 16.64 19.1237 16.192 19.4778 15.968C20.0251 15.648 20.2505 15.552 20.7012 15.104C21.1519 14.688 21.1197 14.272 21.5704 13.824C22.0211 13.376 22.5684 12.512 23.1157 12.128C23.341 11.968 23.7273 11.808 23.9849 11.936C24.339 12.064 24.6931 12.512 24.8863 12.832C26.3672 15.456 27.5261 17.632 27.7515 20.48Z" fill="#1F4766"/>
</svg>
